#define cpu15_width 8
#define cpu15_height 8
static unsigned char cpu15_bits[] = {
   0x02, 0xf2, 0x3e, 0x26, 0x64, 0x7c, 0x4f, 0x40};
